<?xml version="1.0" standalone="no"?>
<!DOCTYPE svg PUBLIC "-//W3C//DTD SVG 20010904//EN"
 "http://www.w3.org/TR/2001/REC-SVG-20010904/DTD/svg10.dtd">
<svg version="1.0" xmlns="http://www.w3.org/2000/svg"
 width="2100.000000pt" height="1959.000000pt" viewBox="0 0 2100.000000 1959.000000"
 preserveAspectRatio="xMidYMid meet">

<g transform="translate(0.000000,1959.000000) scale(0.100000,-0.100000)"
fill="#000000" stroke="none">
<path d="M12355 19580 c-296 -46 -566 -208 -744 -445 -72 -95 -155 -269 -188
-390 -23 -88 -26 -120 -27 -265 -1 -129 3 -181 18 -240 10 -41 34 -140 53
-219 28 -118 49 -175 113 -311 43 -92 101 -209 130 -261 30 -55 56 -117 62
-149 6 -30 26 -101 44 -157 59 -176 47 -264 -123 -954 l-55 -226 -33 -12 c-18
-6 -40 -22 -48 -34 -20 -30 -215 -715 -223 -781 -4 -31 -2 -61 4 -73 10 -17
-3 -49 -78 -202 -122 -247 -123 -252 -124 -451 l-1 -165 -64 -175 c-50 -138
-177 -558 -243 -802 -8 -28 -33 -56 -111 -125 -120 -105 -188 -188 -251 -303
-25 -47 -46 -76 -46 -65 0 46 -24 99 -71 161 -47 63 -49 67 -49 132 0 113 -20
131 -187 172 -87 21 -93 24 -111 59 -14 27 -35 44 -82 68 -45 23 -90 60 -161
132 -115 116 -184 156 -344 197 -300 75 -585 -12 -843 -260 -105 -100 -161
-172 -217 -279 -82 -156 -124 -349 -111 -519 16 -212 96 -351 334 -578 l136
-130 -16 -28 c-10 -16 -33 -72 -52 -125 -29 -82 -44 -108 -96 -167 -34 -39
-96 -99 -139 -134 -68 -57 -83 -64 -145 -76 -100 -19 -231 -87 -304 -159 -74
-72 -88 -93 -259 -381 -165 -278 -256 -442 -320 -577 -34 -72 -63 -116 -108
-164 -145 -155 -255 -354 -310 -562 -16 -59 -27 -77 -89 -145 -214 -233 -442
-544 -649 -887 -95 -156 -257 -481 -351 -700 -38 -88 -86 -183 -108 -211 -21
-28 -125 -141 -231 -250 -106 -110 -208 -220 -227 -247 -30 -42 -55 -58 -229
-152 -108 -57 -215 -111 -238 -119 -104 -37 -402 -87 -603 -101 -52 -4 -101
-12 -107 -17 -20 -16 -15 -54 9 -83 20 -22 42 -30 153 -51 251 -48 451 -41
651 21 44 14 87 25 97 25 21 0 23 -33 1 -54 -25 -26 -133 -83 -223 -117 -91
-36 -144 -79 -139 -112 2 -12 18 -32 37 -44 27 -19 48 -23 104 -23 60 0 105
12 332 85 144 47 265 85 269 85 14 0 5 -47 -16 -80 -63 -103 -82 -172 -59
-208 11 -19 99 -17 145 2 62 26 104 65 185 175 113 151 147 183 211 189 l50 5
70 -71 c38 -39 87 -80 109 -92 100 -51 289 -68 358 -33 73 38 81 143 14 177
-14 8 -53 19 -86 26 -79 17 -126 48 -155 103 l-24 45 17 74 c14 60 15 80 5
113 -6 22 -12 83 -12 135 -1 78 4 111 28 184 61 193 152 383 259 542 114 170
142 199 295 300 237 156 369 260 517 409 199 199 290 335 451 675 104 219 96
206 138 214 59 11 173 75 209 116 19 22 48 69 65 105 32 64 33 65 72 65 21 0
62 -5 89 -11 48 -10 52 -13 87 -77 55 -98 137 -224 216 -331 l70 -94 2 -81 c2
-99 26 -151 114 -248 50 -55 60 -73 66 -114 20 -135 92 -402 140 -515 5 -11
-10 -36 -47 -80 -40 -47 -159 -204 -171 -226 -1 -1 -34 -9 -74 -17 -40 -8 -93
-25 -118 -38 -59 -29 -129 -105 -160 -173 -48 -105 -57 -176 -59 -490 -1 -194
-6 -299 -13 -318 -26 -62 -75 -117 -169 -189 -89 -68 -106 -77 -187 -97 -48
-12 -105 -30 -126 -41 -46 -23 -123 -107 -162 -177 -23 -40 -48 -65 -106 -104
-339 -230 -820 -690 -1108 -1060 -72 -91 -229 -319 -236 -341 -2 -5 -44 -15
-93 -23 -122 -20 -186 -40 -276 -86 -94 -49 -188 -126 -256 -210 -52 -63 -55
-65 -195 -124 -185 -77 -589 -279 -793 -396 -658 -378 -1226 -823 -1701 -1334
-194 -209 -225 -239 -312 -308 -91 -73 -101 -95 -73 -162 19 -43 19 -50 6 -58
-9 -4 -42 -31 -75 -58 -66 -54 -73 -55 -120 -4 -58 63 -123 69 -174 17 -14
-16 -48 -69 -74 -118 -37 -71 -55 -93 -84 -109 -35 -18 -40 -19 -65 -5 -41 23
-61 67 -87 192 -25 119 -49 180 -85 212 -31 28 -67 8 -93 -50 -23 -53 -20 -87
19 -178 17 -41 26 -82 27 -130 2 -49 11 -92 30 -137 30 -75 32 -101 11 -119
-12 -10 -20 -9 -40 4 -40 26 -78 20 -132 -23 -82 -65 -88 -75 -88 -147 l0 -64
-114 -55 c-86 -42 -124 -55 -160 -55 -25 -1 -64 -8 -86 -16 -22 -8 -125 -44
-228 -80 -162 -55 -199 -64 -259 -64 -40 0 -100 -8 -137 -19 -36 -10 -100 -22
-141 -25 -108 -9 -140 -20 -223 -77 -253 -171 -303 -299 -184 -474 124 -184
295 -373 392 -434 111 -70 322 -108 460 -82 38 7 112 37 200 81 214 107 304
119 505 71 101 -25 153 -26 238 -6 78 18 104 32 173 88 61 50 105 107 124 164
10 29 20 39 44 45 24 7 39 23 71 79 59 100 94 137 143 149 88 23 108 33 156
76 34 30 63 72 95 133 64 124 140 211 204 233 41 15 52 24 67 58 25 54 76 105
138 136 29 15 66 36 82 48 19 13 47 21 76 22 56 1 111 30 237 124 52 39 99 70
105 70 7 0 36 -9 65 -20 84 -32 131 -27 190 20 28 21 53 44 57 50 17 28 325
264 825 632 164 120 248 175 309 202 46 20 154 76 240 123 86 47 224 123 307
169 84 45 198 111 255 145 255 154 721 474 962 661 86 66 149 107 190 122 345
130 1281 582 1637 791 180 106 413 237 550 310 268 142 698 354 754 370 85 25
131 15 266 -60 188 -104 427 -194 673 -254 193 -47 319 -93 713 -259 104 -44
252 -103 329 -132 77 -28 220 -90 318 -136 231 -109 468 -203 637 -252 136
-39 208 -54 442 -92 69 -12 183 -36 252 -55 69 -19 187 -47 263 -62 124 -24
144 -31 202 -70 35 -23 150 -85 255 -137 158 -79 224 -119 381 -231 236 -170
575 -424 903 -678 325 -252 400 -298 551 -335 83 -20 164 -75 546 -372 374
-291 433 -324 581 -319 l81 3 126 -99 c69 -55 129 -109 133 -120 10 -29 251
-266 309 -303 36 -23 58 -47 78 -85 46 -88 125 -186 248 -310 114 -114 118
-120 144 -197 29 -87 93 -217 180 -364 54 -93 102 -146 131 -146 50 0 222 111
345 222 228 207 465 383 634 472 180 95 426 263 610 416 115 96 200 175 463
428 222 215 292 295 292 333 0 34 -89 117 -168 156 -71 36 -82 38 -167 38 -87
0 -93 -2 -189 -48 -55 -26 -144 -77 -198 -112 -190 -125 -232 -138 -479 -155
-139 -10 -199 -9 -375 5 -136 11 -257 15 -347 12 l-138 -6 22 37 c51 85 173
252 230 315 66 73 112 101 257 157 l83 32 -3 36 -3 37 -85 -2 c-152 -3 -254
-51 -391 -183 -67 -65 -71 -67 -112 -63 -40 5 -45 2 -97 -50 -53 -53 -124 -87
-182 -87 -29 0 -109 44 -183 101 l-67 51 -42 -13 c-22 -8 -48 -12 -56 -10 -16
3 -141 94 -158 114 -8 9 -2 36 22 97 39 98 37 113 -27 149 -97 56 -278 189
-367 270 -418 383 -1188 994 -1840 1461 -385 276 -1076 728 -1170 766 -30 13
-107 33 -170 45 l-115 22 -175 172 c-230 226 -509 464 -702 598 -218 152 -505
308 -1008 547 -129 61 -239 115 -244 120 -4 4 6 37 23 72 122 248 -6 467 -389
666 l-91 47 -84 199 -84 198 19 72 c159 582 197 1275 115 2086 -23 226 -57
326 -189 554 -120 205 -154 291 -211 520 -76 305 -89 386 -90 561 0 180 13
256 68 385 73 175 158 404 188 510 44 157 58 264 65 490 5 184 8 211 30 267
32 85 61 235 73 383 9 111 14 134 46 205 85 185 155 436 231 832 l28 142 43
31 c77 56 111 138 148 355 25 152 65 472 65 527 0 19 -9 52 -21 73 -25 48 -24
58 27 570 35 357 48 442 85 575 13 47 22 107 23 160 1 81 -1 88 -38 157 -38
69 -39 72 -23 97 19 28 36 32 179 41 257 15 501 123 694 308 469 448 469 1176
0 1624 -208 199 -449 300 -736 308 -74 2 -162 0 -195 -5z"/>
</g>
</svg>
